<?xml version="1.0" encoding="UTF-8" standalone="no"?>
<!-- Created with Inkscape (http://www.inkscape.org/) -->

<svg
   width="436.82373"
   height="679.20105"
   viewBox="0 0 436.82373 679.20105"
   version="1.1"
   id="svg1"
   xml:space="preserve"
   inkscape:version="1.4.2 (ebf0e940d0, 2025-05-08)"
   sodipodi:docname="logo.svg"
   xmlns:inkscape="http://www.inkscape.org/namespaces/inkscape"
   xmlns:sodipodi="http://sodipodi.sourceforge.net/DTD/sodipodi-0.dtd"
   xmlns:xlink="http://www.w3.org/1999/xlink"
   xmlns="http://www.w3.org/2000/svg"
   xmlns:svg="http://www.w3.org/2000/svg"><sodipodi:namedview
     id="namedview1"
     pagecolor="#ffffff"
     bordercolor="#000000"
     borderopacity="0.25"
     inkscape:showpageshadow="2"
     inkscape:pageopacity="0.0"
     inkscape:pagecheckerboard="0"
     inkscape:deskcolor="#d1d1d1"
     inkscape:document-units="px"
     inkscape:zoom="0.96924591"
     inkscape:cx="305.39205"
     inkscape:cy="335.82809"
     inkscape:window-width="1920"
     inkscape:window-height="1008"
     inkscape:window-x="0"
     inkscape:window-y="0"
     inkscape:window-maximized="1"
     inkscape:current-layer="layer1" /><defs
     id="defs1"><linearGradient
       id="linearGradient1"
       inkscape:collect="always"><stop
         style="stop-color:#0662fc;stop-opacity:1;"
         offset="0"
         id="stop1" /><stop
         style="stop-color:#b854ff;stop-opacity:1;"
         offset="1"
         id="stop2" /></linearGradient><linearGradient
       inkscape:collect="always"
       xlink:href="#linearGradient1"
       id="linearGradient2"
       x1="45.68123"
       y1="220.57487"
       x2="482.50497"
       y2="220.57487"
       gradientUnits="userSpaceOnUse" /></defs><g
     inkscape:label="Layer 1"
     inkscape:groupmode="layer"
     id="layer1"
     transform="translate(-45.68123,119.02566)"><path
       style="fill:url(#linearGradient2)"
       d="m 211.14003,559.1289 c -4.10235,-1.86914 -8.22905,-6.95765 -9.00744,-11.1068 -0.35013,-1.86635 -0.43357,-15.4656 -0.18542,-30.22056 0.4054,-24.10528 0.67866,-27.58816 2.69319,-34.3272 5.16128,-17.26556 15.33445,-33.4839 32.53817,-51.87322 4.71669,-5.04173 9.01123,-10.31208 9.54344,-11.71189 1.13013,-2.97248 1.3372,-60.42716 0.21764,-60.38998 -0.4125,0.0137 -2.872,2.842 -5.46555,6.28513 -5.96625,7.92064 -20.30663,22.10589 -28.84225,28.53026 -3.60679,2.71466 -13.05679,9.18039 -21,14.36829 -28.76492,18.78706 -36.84444,31.50923 -39.28928,61.86567 -0.98899,12.27983 -1.55368,15.31664 -3.27839,17.63045 -6.42704,8.62233 -20.46754,8.58123 -26.64422,-0.078 -1.73137,-2.42724 -2.29965,-4.80452 -2.54025,-10.62671 -0.39832,-9.6387 2.70805,-27.55682 6.24113,-36 4.2942,-10.26208 4.28946,-10.21508 0.94897,-9.40495 -24.3023,5.8937 -39.783218,18.34837 -45.563768,36.65681 -1.17524,3.72229 -2.32646,11.42514 -2.84774,19.05435 -1.0054,14.71458 -2.30461,17.82823 -9.01203,21.59802 -7.94887,4.46751 -18.66133,1.45251 -22.33333,-6.28567 -2.15205,-4.53509 -2.18071,-22.45912 -0.0539,-33.67102 5.06079,-26.67832 23.12802,-49.08696 48.68405,-60.38243 3.16442,-1.39864 15.560858,-5.44144 27.547648,-8.984 11.98679,-3.54257 25.26371,-7.81928 29.50428,-9.50381 26.5096,-10.53074 47.79318,-25.78924 61.68135,-44.22023 3.30727,-4.38909 6.01323,-8.40302 6.01323,-8.91984 0,-0.57706 -25.85319,-0.93314 -66.99473,-0.92273 -45.19931,0.0114 -68.406728,-0.3386 -71.334938,-1.07593 -8.59252,-2.16362 -18.22697,-11.70641 -20.6349,-20.43857 -0.79173,-2.87114 -1.02292,-61.71316 -0.81922,-208.5 l 0.28379,-204.499997 2.69466,-4.583643 c 3.39091,-5.76797 9.59373,-11.41566 15.63567,-14.23633 l 4.66967,-2.18003 h 129.999998 130 l 6,2.78115 c 5.32179,2.46678 11.96983,8.77289 58.81415,55.789171 43.16974,43.328203 53.25718,53.9595749 55.24023,58.2188529 l 2.42608,5.210829 0.01,154.2129771 c 0.01,153.22289 -0.003,154.24644 -2.04443,159.42453 -3.7259,9.45267 -10.92758,16.23292 -20.11153,18.93463 -2.03641,0.59907 -29.70598,0.97769 -71.08427,0.9727 -37.2625,-0.004 -67.75,0.35643 -67.75,0.80205 0,3.8722 18.42196,24.32495 28.81456,31.991 18.42653,13.59223 32.52445,19.59098 79.03961,33.63181 17.71159,5.34634 27.00384,9.60096 36.49878,16.71166 12.99703,9.73337 24.25175,26.19295 28.59474,41.81864 2.52224,9.07481 4.59536,29.89299 3.62271,36.3791 -2.18454,14.56753 -20.83894,18.51755 -29.93224,6.33807 -1.59767,-2.13991 -2.15204,-5.14056 -2.83864,-15.36482 -0.98463,-14.66235 -3.38787,-22.88011 -9.29281,-31.77628 -6.92027,-10.42582 -21.73433,-20.29532 -35.96414,-23.96021 -3.27659,-0.84388 -6.06407,-1.4277 -6.1944,-1.29737 -0.13033,0.13033 1.31151,4.35946 3.20409,9.39807 6.45704,17.19057 8.38525,40.86662 3.82634,46.98271 -4.77937,6.41184 -14.87419,8.53152 -21.68557,4.55346 -5.97031,-3.48685 -7.33708,-6.84497 -8.11713,-19.94348 -0.89772,-15.07445 -2.66977,-23.62469 -6.60527,-31.8708 -4.20886,-8.81886 -14.04584,-19.06482 -25.38569,-26.44113 -25.26038,-16.43112 -31.23516,-20.92476 -41.94468,-31.54653 -6.12727,-6.07706 -13.16549,-13.82147 -15.64049,-17.20978 -2.475,-3.38832 -4.88893,-6.17868 -5.3643,-6.2008 -0.4757,-0.0221 -0.69413,13.81869 -0.48582,30.78434 l 0.37846,30.82456 10.36688,11.09433 c 18.61693,19.92329 28.07285,34.82439 33.16088,52.25656 3.14737,10.78322 3.94564,38.80076 1.25308,43.98007 -3.88209,7.46743 -14.1631,10.36058 -22.27516,6.26838 -5.84408,-2.9481 -7.17717,-6.57154 -8.11467,-22.0563 -0.45593,-7.53068 -1.32403,-15.70464 -1.92912,-18.16434 -2.6177,-10.64112 -12.96078,-26.93199 -23.6963,-37.32285 l -4.95409,-4.79505 -7.04641,7.41803 c -7.67672,8.08159 -14.41073,17.42232 -17.349,24.06478 -4.55183,10.29017 -5.14725,14.96772 -5.01551,39.40145 0.14066,26.08924 -0.57646,29.68248 -6.80969,34.12093 -3.94087,2.80615 -12.39206,3.68807 -16.66881,1.73946 z m 16.18088,-257.78957 c 9.5503,-3.57322 17.19433,-12.08814 18.86991,-21.01976 0.36751,-1.95897 0.74258,-17.09771 0.83349,-33.64166 l 0.1653,-30.07991 -7.29639,-2.50171 c -23.3004,-7.98899 -40.07425,-25.84492 -46.34548,-49.33523 -2.64963,-9.92478 -2.86995,-26.72091 -0.48092,-36.66238 2.03732,-8.47789 8.11051,-20.34639 14.41728,-28.174867 24.63899,-30.58399 70.40198,-35.33063 100.93042,-10.46875 20.20605,16.455497 30.89296,42.512747 27.28456,66.526297 -3.97949,26.4831 -21.64384,48.18544 -46.42663,57.03955 l -9.08284,3.24501 v 31.35421 c 0,34.91094 0.13988,35.8564 6.58552,44.51271 2.73766,3.67661 5.50346,5.97479 9.62779,8 l 5.78669,2.8415 65.25,0.2844 65.25,0.2844 V 166.04921 28.555282 l -42.75,-0.29047 C 348.03858,27.980111 347.10763,27.930491 343.0614,25.76615 337.70123,22.898981 331.35455,15.63709 329.86563,10.6675 329.03879,7.9077779 328.68961,-6.8073951 328.68961,-38.891677 v -45.63398 h -116.5 -116.499998 v 193.999997 194 H 158.6521 c 61.84115,0 63.06411,-0.038 68.66881,-2.13501 z m 53.57544,-121.646 c 7.8642,-3.87154 14.90928,-11.07455 18.58429,-19.00092 2.20356,-4.75269 2.65603,-7.16133 2.68006,-14.26672 0.0267,-7.88934 -0.2599,-9.13326 -3.71588,-16.12893 -5.58839,-11.31214 -14.17364,-18.17768 -26.7645,-21.40331 -20.53977,-5.26205 -41.05077,8.45759 -46.01829,30.78125 -2.85735,12.84069 4.10525,29.03746 16.03702,37.30618 7.11414,4.93011 13.36767,6.58097 23.5923,6.2281 7.85394,-0.27104 9.99329,-0.75302 15.605,-3.51565 z M 417.60628,-4.9562671 C 417.37711,-5.1931031 404.90604,-17.750652 389.8928,-32.861931 l -27.29682,-27.475054 0.29682,25.802572 c 0.27299,23.731536 0.44971,25.9713759 2.2018,27.9056639 1.84124,2.032718 2.75867,2.103092 27.41666,2.103092 14.03143,0 25.32418,-0.193775 25.09502,-0.43061 z"
       id="path1" /></g></svg>
